<svg width="34" height="32" fill="none" xmlns="http://www.w3.org/2000/svg"><path d="M24.6 2.2C24.337.946 23.196 0 21.831 0a.558.558 0 0 0-.565.55c0 .304.253.55.565.55.935 0 1.696.74 1.696 1.65 0 .91-.76 1.65-1.696 1.65a.558.558 0 0 0-.565.55c0 .303.253.55.565.55 1.365 0 2.506-.947 2.77-2.2h7.404v4.949H1.485v-4.95h9.608a.558.558 0 0 0 .565-.55.558.558 0 0 0-.565-.55h-1.027a1.69 1.69 0 0 1 1.592-1.1c.935 0 1.695.741 1.695 1.65 0 .91-.76 1.65-1.695 1.65a.558.558 0 0 0-.565.55c0 .304.253.55.565.55 1.558 0 2.826-1.233 2.826-2.75C14.484 1.234 13.216 0 11.658 0c-1.364 0-2.506.946-2.769 2.2H.354v29.145h32.781V2.2H24.6zm7.405 28.045H1.485V9.35h30.52v20.896z" fill="#fff"/><path d="M15.049 1.1c.935 0 1.696.74 1.696 1.65 0 .91-.761 1.65-1.696 1.65a.558.558 0 0 0-.565.55c0 .303.253.55.565.55 1.558 0 2.826-1.234 2.826-2.75 0-1.517-1.268-2.75-2.826-2.75a.558.558 0 0 0-.565.55c0 .304.253.55.565.55zM18.44 1.1c.935 0 1.696.74 1.696 1.65 0 .91-.761 1.65-1.696 1.65a.558.558 0 0 0-.565.55c0 .303.253.55.565.55 1.558 0 2.826-1.234 2.826-2.75 0-1.517-1.268-2.75-2.826-2.75a.558.558 0 0 0-.565.55c0 .304.253.55.565.55zM5.44 13.748h12.435a.558.558 0 0 0 .565-.55.558.558 0 0 0-.565-.55H5.441a.558.558 0 0 0-.565.55c0 .304.253.55.565.55zM28.049 21.447H19.57a.558.558 0 0 0-.566.55c0 .304.254.55.566.55h8.477a.558.558 0 0 0 .566-.55.558.558 0 0 0-.566-.55zM5.44 18.147h5.653a.558.558 0 0 0 .565-.55.558.558 0 0 0-.565-.55H5.44a.558.558 0 0 0-.565.55c0 .304.253.55.565.55zM28.049 25.846h-5.652a.558.558 0 0 0-.566.55c0 .304.254.55.566.55h5.652a.558.558 0 0 0 .565-.55.558.558 0 0 0-.566-.55zM16.18 17.597c0 .304.253.55.565.55h8.477a.558.558 0 0 0 .566-.55.558.558 0 0 0-.566-.55h-8.477a.558.558 0 0 0-.566.55zM14.32 17.988a.57.57 0 0 0 .164-.39.568.568 0 0 0-.164-.39.604.604 0 0 0-.803 0 .568.568 0 0 0-.163.39.57.57 0 0 0 .163.39.58.58 0 0 0 .803 0zM7.702 21.997c0 .304.253.55.565.55h8.478a.558.558 0 0 0 .565-.55.558.558 0 0 0-.565-.55H8.267a.558.558 0 0 0-.565.55zM5.44 22.547c.148 0 .295-.06.402-.16a.57.57 0 0 0 .164-.39.545.545 0 0 0-.164-.385.598.598 0 0 0-.802-.005.568.568 0 0 0-.164.39.57.57 0 0 0 .164.39c.107.1.248.16.4.16zM28.049 18.148a.58.58 0 0 0 .4-.16.546.546 0 0 0 0-.78.604.604 0 0 0-.802 0 .568.568 0 0 0-.164.39.57.57 0 0 0 .164.39.58.58 0 0 0 .402.16zM19.57 25.846H5.44a.558.558 0 0 0-.564.55c0 .304.253.55.565.55h14.13a.558.558 0 0 0 .565-.55.558.558 0 0 0-.565-.55z" fill="#fff"/></svg>